<?xml version="1.0" encoding="UTF-8"?>
<svg width="1444px" height="1435px" viewBox="0 0 1444 1435" version="1.1" xmlns="http://www.w3.org/2000/svg" xmlns:xlink="http://www.w3.org/1999/xlink">
    <!-- Generator: Sketch 58 (84663) - https://sketch.com -->
    <title>AD-2019-LOGO-FINAL_stacked</title>
    <desc>Created with Sketch.</desc>
    <defs>
        <polygon id="path-1" points="0.06 0.31 1117.81 0.31 1117.81 1132.64 0.06 1132.64"></polygon>
        <polygon id="path-3" points="0.842 0.69 1000.86 0.69 1000.86 197.94 0.842 197.94"></polygon>
    </defs>
    <g id="AD-2019-LOGO-FINAL_stacked" stroke="none" stroke-width="1" fill="none" fill-rule="evenodd">
        <g id="Group-5">
            <mask id="mask-2" fill="white">
                <use xlink:href="#path-1"></use>
            </mask>
            <g id="Clip-2"></g>
            <path d="M986.264,606.874 C980.802,606.874 975.875,603.85 973.38,598.898 L847.779,336.483 L774.407,490.056 L879.632,490.056 C897.184,490.056 904.966,502.392 909.785,513.147 L912.023,518.13 L760.989,518.13 L722.455,598.746 C722.253,599.182 722.007,599.603 721.762,600.008 L721.762,768.848 C516.394,768.828 349.306,601.74 349.306,396.36 C349.306,190.992 516.394,23.892 721.762,23.892 L721.762,533.564 L833.181,300.433 L833.213,300.344 L833.263,300.25 L833.661,299.518 C835.79,295.576 838.998,289.627 847.565,289.627 L848.005,289.627 C856.581,289.627 859.799,295.618 861.918,299.589 L862.283,300.27 L862.326,300.351 L862.377,300.433 L999.343,586.469 C1000.21,588.346 1000.65,590.373 1000.65,592.491 C1000.65,600.428 994.197,606.874 986.264,606.874 M721.77,0.31 C503.039,0.31 325.732,177.636 325.732,396.36 C325.732,615.084 503.039,792.41 721.77,792.41 C940.505,792.41 1117.81,615.084 1117.81,396.36 C1117.81,177.636 940.505,0.31 721.77,0.31" id="Fill-1" fill="#000000" mask="url(#mask-2)"></path>
            <path d="M769.996,992.624 L769.996,993.173 C769.996,1018.64 748.399,1035.74 716.261,1035.74 L653.776,1035.74 L653.776,952.888 L717.098,952.888 C750.213,952.888 769.996,967.738 769.996,992.624 M717.923,935.344 L644.754,935.344 C639.456,935.344 635.146,939.683 635.146,945.013 L635.127,1121.62 C635.158,1126.75 636.267,1132.64 644.601,1132.64 C652.737,1132.64 653.776,1126.75 653.776,1121.62 L653.776,1053.03 L713.267,1053.03 L771.708,1129.03 C773.51,1131.32 776.208,1132.64 779.112,1132.64 C784.265,1132.64 788.462,1128.44 788.462,1123.28 C788.462,1121.12 787.742,1119.07 786.344,1117.38 L734.28,1049.97 C749.602,1047.3 762.58,1041.29 771.98,1032.47 C782.873,1022.25 788.637,1008.47 788.637,992.624 L788.637,992.083 C788.637,978.089 783.106,964.531 773.467,954.885 C760.89,942.284 741.159,935.344 717.923,935.344" id="Fill-3" fill="#000000" mask="url(#mask-2)"></path>
            <path d="M104.004,942.053 L103.984,942.002 L103.953,941.951 L103.727,941.523 C102.404,939.059 100.407,935.342 95.07,935.342 L94.794,935.342 C89.468,935.342 87.471,939.036 86.156,941.48 L85.903,941.939 L85.872,942.002 L85.84,942.053 L0.744,1120.12 L0.713,1120.18 L0.693,1120.24 C0.234,1121.36 0,1122.52 0,1123.7 C0,1128.63 4.002,1132.64 8.933,1132.64 C12.336,1132.64 15.505,1130.66 16.992,1127.59 L40.951,1077.45 L138.871,1077.45 L137.488,1074.34 C134.483,1067.66 129.645,1059.98 118.722,1059.98 L49.293,1059.98 L94.926,964.474 L173.036,1127.68 C174.597,1130.76 177.661,1132.64 181.055,1132.64 C185.995,1132.64 190.008,1128.63 190.008,1123.7 C190.008,1122.37 189.732,1121.12 189.195,1119.96 L104.004,942.053" id="Fill-4" fill="#000000" mask="url(#mask-2)"></path>
        </g>
        <path d="M1257.22,1119.95 L1257.21,1119.92 L1172.03,942.05 L1172,942.007 L1171.98,941.956 L1171.74,941.528 C1170.42,939.063 1168.44,935.335 1163.07,935.335 L1162.82,935.335 C1157.49,935.335 1155.5,939.033 1154.17,941.489 L1153.93,941.948 L1153.9,941.999 L1153.86,942.057 L1068.77,1120.13 L1068.75,1120.18 L1068.72,1120.23 C1068.26,1121.35 1068.02,1122.52 1068.02,1123.69 C1068.02,1128.64 1072.03,1132.65 1076.96,1132.65 C1080.37,1132.65 1083.53,1130.66 1085.02,1127.58 L1108.97,1077.45 L1206.89,1077.45 L1205.5,1074.35 C1202.52,1067.67 1197.69,1059.99 1186.76,1059.99 L1117.31,1059.99 L1162.95,964.478 L1241.06,1127.69 C1242.62,1130.76 1245.69,1132.65 1249.09,1132.65 C1254.02,1132.65 1258.03,1128.64 1258.03,1123.69 C1258.03,1122.42 1257.76,1121.17 1257.23,1119.99 L1257.22,1119.95" id="Fill-6" fill="#000000"></path>
        <path d="M395.984,935.946 C394.957,935.619 393.924,935.467 392.897,935.467 C389.179,935.467 385.575,937.597 383.017,941.313 L310.894,1047.53 L238.806,941.333 C236.261,937.597 232.656,935.467 228.927,935.467 C227.895,935.467 226.856,935.619 225.84,935.946 C220.939,937.495 218.25,940.979 218.25,945.755 L218.25,1123.54 C218.25,1128.55 222.325,1132.61 227.327,1132.61 C232.318,1132.61 236.374,1128.55 236.374,1123.54 L236.362,970.283 L303.093,1067.36 C304.896,1070.09 307.333,1071.44 310.509,1071.44 L310.786,1071.44 C313.943,1071.44 316.376,1070.1 318.22,1067.37 L384.914,970.295 L384.914,1123.31 C384.914,1128.46 389.098,1132.65 394.232,1132.65 C399.375,1132.65 403.551,1128.46 403.551,1123.31 L403.571,945.755 C403.571,940.979 400.874,937.495 395.984,935.946" id="Fill-7" fill="#000000"></path>
        <path d="M838.593,935.339 C833.49,935.339 829.333,939.414 829.333,944.416 L829.333,1123.54 C829.333,1128.55 833.502,1132.62 838.605,1132.62 C843.715,1132.62 847.874,1128.55 847.874,1123.54 L847.874,944.416 C847.874,939.414 843.708,935.339 838.593,935.339" id="Fill-8" fill="#000000"></path>
        <path d="M588.085,1115.08 L473.029,1115.09 L473.029,1041.9 L574.557,1041.9 C579.263,1041.9 583.083,1037.97 583.083,1033.12 C583.083,1028.28 579.263,1024.35 574.557,1024.35 L473.029,1024.35 L473.029,952.91 L586.699,952.91 C591.448,952.91 595.297,948.967 595.297,944.116 C595.297,939.29 591.448,935.358 586.699,935.358 L463.901,935.358 C458.654,935.358 454.387,939.667 454.387,944.973 L454.387,1123.01 C454.387,1128.33 458.646,1132.65 463.889,1132.65 L588.104,1132.63 C592.802,1132.63 596.632,1128.69 596.632,1123.84 C596.632,1119.01 592.791,1115.08 588.085,1115.08" id="Fill-9" fill="#000000"></path>
        <path d="M923.104,974.469 C937.682,958.914 957.593,950.358 979.182,950.358 C1002.37,950.358 1021.16,958.214 1040.12,975.824 C1041.84,977.424 1044.14,978.339 1046.44,978.339 C1051.55,978.339 1055.71,974.103 1055.71,968.887 C1055.71,966.248 1054.64,963.722 1052.78,961.95 L1052.76,961.919 L1052.73,961.888 C1035.82,946.925 1015.24,933.082 979.455,933.082 C952.389,933.082 927.422,943.717 909.137,963.028 C891.201,981.967 881.321,1007.35 881.321,1034.51 L881.321,1035.06 C881.321,1062.46 891.181,1087.85 909.08,1106.58 C927.169,1125.52 951.972,1135.94 978.918,1135.94 C994.227,1135.94 1007.77,1133.28 1020.28,1127.8 C1031.23,1123.02 1041.33,1116.17 1052.06,1106.28 C1053.85,1104.56 1054.87,1102.17 1054.87,1099.69 C1054.87,1094.76 1050.92,1090.76 1046.1,1090.76 C1043.92,1090.76 1041.74,1091.61 1040.12,1093.12 C1020.83,1111.02 1002.69,1118.65 979.455,1118.65 C957.952,1118.65 938.029,1110.02 923.339,1094.36 C908.639,1078.69 900.539,1057.43 900.539,1034.51 L900.539,1033.97 C900.539,1011.12 908.546,989.993 923.104,974.469" id="Fill-10" fill="#000000"></path>
        <path d="M1434.44,935.326 C1429.37,935.326 1425.41,939.145 1425.41,944.026 L1425.41,1099.19 L1300.08,941.192 C1297.22,937.468 1293.79,935.478 1290.19,935.478 C1289.2,935.478 1288.19,935.634 1287.2,935.949 C1282.3,937.495 1279.6,940.99 1279.6,945.798 L1279.6,1123.73 C1279.6,1128.66 1283.68,1132.66 1288.68,1132.66 C1293.73,1132.66 1297.7,1128.85 1297.7,1123.98 L1297.7,966.273 L1425.75,1127.83 C1427.45,1129.94 1430.15,1132.71 1433.95,1132.71 C1435.04,1132.71 1436.17,1132.47 1437.32,1132.03 C1441.49,1130.41 1443.54,1127.61 1443.54,1123.47 L1443.52,944.249 C1443.52,939.328 1439.45,935.326 1434.44,935.326" id="Fill-11" fill="#000000"></path>
        <path d="M1275.65,1238.37 C1275.37,1238.28 1275.08,1238.24 1274.79,1238.24 C1273.83,1238.24 1272.93,1238.75 1272.32,1239.64 L1263.53,1252.59 L1254.73,1239.64 C1254.13,1238.75 1253.22,1238.24 1252.25,1238.24 C1251.97,1238.24 1251.67,1238.28 1251.4,1238.37 C1250.17,1238.77 1249.43,1239.76 1249.43,1241 L1249.43,1265.46 C1249.43,1266.89 1250.6,1268.06 1252.03,1268.06 C1253.45,1268.06 1254.63,1266.89 1254.63,1265.46 L1254.63,1248.72 L1261.34,1258.5 C1262.01,1259.45 1262.87,1259.64 1263.48,1259.64 C1264.11,1259.64 1264.97,1259.45 1265.63,1258.52 L1272.35,1248.72 L1272.35,1265.43 C1272.35,1266.88 1273.53,1268.06 1274.99,1268.06 C1276.44,1268.06 1277.62,1266.88 1277.62,1265.43 L1277.62,1241 C1277.62,1239.76 1276.89,1238.77 1275.65,1238.37" id="Fill-12" fill="#000000"></path>
        <g id="Group-20" transform="translate(245.000000, 1237.000000)">
            <mask id="mask-4" fill="white">
                <use xlink:href="#path-3"></use>
            </mask>
            <g id="Clip-14"></g>
            <path d="M998.27,1.22 L977.7,1.22 C976.27,1.22 975.1,2.39 975.1,3.84 C975.1,5.29 976.27,6.47 977.7,6.47 L985.16,6.47 L985.16,28.47 C985.16,29.89 986.34,31.06 987.8,31.06 C989.23,31.06 990.41,29.89 990.41,28.47 L990.41,6.47 L998.27,6.47 C999.7,6.47 1000.86,5.29 1000.86,3.84 C1000.86,2.39 999.7,1.22 998.27,1.22" id="Fill-13" fill="#000000" mask="url(#mask-4)"></path>
            <path d="M338.878,57.98 L338.878,58.53 C338.878,83.99 317.294,101.09 285.156,101.09 L222.671,101.09 L222.671,18.24 L285.981,18.24 C319.107,18.24 338.878,33.09 338.878,57.98 M286.795,0.7 L213.643,0.7 C208.331,0.7 204.021,5.04 204.021,10.37 L204.021,186.97 C204.041,192.1 205.15,197.99 213.484,197.99 C221.631,197.99 222.671,192.1 222.671,186.97 L222.671,118.38 L282.158,118.38 L340.59,194.38 C342.393,196.68 345.09,197.99 347.995,197.99 C353.16,197.99 357.356,193.79 357.356,188.63 C357.356,186.47 356.625,184.42 355.239,182.73 L303.163,115.33 C318.484,112.65 331.463,106.64 340.863,97.83 C351.755,87.61 357.52,73.83 357.52,57.98 L357.52,57.44 C357.52,43.43 351.989,29.87 342.35,20.24 C329.773,7.64 310.042,0.7 286.795,0.7" id="Fill-15" fill="#000000" mask="url(#mask-4)"></path>
            <path d="M661.695,7.41 L661.675,7.36 L661.644,7.3 L661.411,6.88 C660.094,4.41 658.09,0.69 652.761,0.69 L652.485,0.69 C647.16,0.69 645.163,4.39 643.839,6.83 L643.593,7.29 L643.563,7.36 L643.532,7.41 L558.434,185.47 L558.403,185.54 L558.383,185.59 C557.924,186.71 557.691,187.87 557.691,189.05 C557.691,193.98 561.704,197.99 566.636,197.99 C570.039,197.99 573.195,196.01 574.682,192.94 L598.641,142.8 L696.553,142.8 L695.168,139.71 C692.182,133.01 687.355,125.33 676.413,125.33 L606.972,125.33 L652.617,29.83 L730.727,193.03 C732.288,196.11 735.343,197.99 738.746,197.99 C743.673,197.99 747.687,193.98 747.687,189.05 C747.687,187.72 747.422,186.48 746.885,185.31 L661.695,7.41" id="Fill-16" fill="#000000" mask="url(#mask-4)"></path>
            <path d="M945.72,1.3 C944.7,0.98 943.66,0.82 942.64,0.82 C938.91,0.82 935.3,2.95 932.76,6.68 L860.65,112.89 L788.56,6.69 C786,2.95 782.39,0.82 778.67,0.82 C777.63,0.82 776.6,0.98 775.58,1.3 C770.68,2.85 767.99,6.33 767.99,11.11 L767.99,188.9 C767.99,193.9 772.05,197.97 777.05,197.97 C782.06,197.97 786.12,193.9 786.12,188.9 L786.09,35.65 L852.83,132.71 C854.64,135.44 857.07,136.79 860.26,136.79 L860.53,136.79 C863.7,136.79 866.13,135.45 867.95,132.71 L934.66,35.65 L934.66,188.67 C934.66,193.81 938.82,198 943.96,198 C949.11,198 953.29,193.81 953.29,188.67 L953.31,11.11 C953.31,6.33 950.61,2.85 945.72,1.3" id="Fill-17" fill="#000000" mask="url(#mask-4)"></path>
            <path d="M66.901,180.33 L19.504,180.33 L19.504,18.23 L66.901,18.23 C91.848,18.23 113.308,26.58 128.964,42.37 C143.726,57.25 151.866,77.63 151.866,99.72 L151.866,100.28 C151.866,122.37 143.738,142.51 128.988,157 C113.453,172.26 91.981,180.33 66.901,180.33 M66.901,0.69 L10.426,0.69 C5.139,0.69 0.842,5.01 0.842,10.32 L0.842,188.23 C0.842,193.54 5.151,197.85 10.445,197.85 L66.901,197.87 C96.317,197.87 122.998,187.8 142.025,169.53 C160.76,151.55 171.076,126.76 171.076,99.72 L171.076,99.18 C171.076,72.13 160.76,47.27 142.037,29.2 C122.978,10.81 96.297,0.69 66.901,0.69" id="Fill-18" fill="#000000" mask="url(#mask-4)"></path>
            <path d="M531.255,180.43 L416.201,180.44 L416.201,107.25 L517.729,107.25 C522.435,107.25 526.265,103.32 526.265,98.47 C526.265,93.63 522.435,89.7 517.729,89.7 L416.201,89.7 L416.201,18.26 L529.87,18.26 C534.607,18.26 538.458,14.32 538.458,9.47 C538.458,4.64 534.607,0.71 529.87,0.71 L407.073,0.71 C401.818,0.71 397.547,5.02 397.547,10.32 L397.547,188.37 C397.547,193.68 401.806,198 407.053,198 L531.275,197.98 C535.981,197.98 539.8,194.04 539.8,189.19 C539.8,184.36 535.974,180.43 531.255,180.43" id="Fill-19" fill="#000000" mask="url(#mask-4)"></path>
        </g>
    </g>
</svg>